<?xml version="1.0" standalone="no"?><!DOCTYPE svg PUBLIC "-//W3C//DTD SVG 1.1//EN" "http://www.w3.org/Graphics/SVG/1.1/DTD/svg11.dtd"><svg t="1515156404980" class="icon" style="" viewBox="0 0 1024 1024" version="1.1" xmlns="http://www.w3.org/2000/svg" p-id="3391" xmlns:xlink="http://www.w3.org/1999/xlink" width="200" height="200"><defs><style type="text/css"></style></defs><path d="M499.18464 707.32288l133.05856-298.99264V340.89472H413.93152l-0.57856 56.47872 160.14336-1.152-134.8096 311.10656h60.49792z m295.97696-426.50112c-21.34016 41.17504-82.87744 156.52864-82.87744 156.52864l109.98272-28.57472c5.81632 23.73632 14.55616 77.51168 14.55616 103.2448 0 177.8688-143.92832 321.80224-321.80224 321.80224-177.82784 0-321.75616-143.92832-321.75616-321.80224 0-177.91488 143.92832-321.8432 321.75616-321.8432 37.35552 0 73.20576 6.2976 106.12736 17.92512 0 0 5.8624-19.38944 12.16-39.75168-37.36064-13.09184-77.07136-19.87584-118.75328-19.87584-200.63232 0-363.45856 162.87744-363.45856 363.55072 0 200.63232 162.83136 363.50464 363.45856 363.50464 200.6528 0 363.48416-162.87744 363.48416-363.50464 0-87.76704-31.0528-168.20736-82.87744-231.20384z" p-id="3392" fill="#616161"></path></svg>