<?xml version="1.0" standalone="no"?><!DOCTYPE svg PUBLIC "-//W3C//DTD SVG 1.1//EN" "http://www.w3.org/Graphics/SVG/1.1/DTD/svg11.dtd"><svg t="1515156467651" class="icon" style="" viewBox="0 0 1024 1024" version="1.1" xmlns="http://www.w3.org/2000/svg" p-id="5087" xmlns:xlink="http://www.w3.org/1999/xlink" width="200" height="200"><defs><style type="text/css"></style></defs><path d="M63.618946 414.931221c0-22.86066 0-45.721321 0-68.581981 0.713244-1.746784 1.64957-3.434216 2.105964-5.249561 12.446473-49.54337 56.17951-80.452333 106.176205-79.639828 45.89733 0.74599 91.814102 0.172939 137.722688 0.128937 3.746324-0.004093 7.492648-0.414439 11.935843-0.677429-8.263198-9.06547-16.068977-16.211217-22.233374-24.62791-34.431184-47.010687-27.069519-120.93842 28.341488-156.756183 11.102872-7.176446 24.145933-11.18269 36.294624-16.651238 14.089903 0 28.180829 0 42.270732 0 25.728988 6.857175 48.670489 19.043728 64.828494 41.104163 12.169157 16.614399 22.214954 34.873252 33.158191 52.43114 2.057869 3.301186 3.888564 6.751774 6.912433 12.034081 3.334955-6.528694 5.231141-11.025101 7.77815-15.090697 10.584056-16.889669 20.414959-34.399461 32.304753-50.272987 16.134469-21.539572 38.809911-33.449833 64.145949-40.206724 14.089903 0 28.180829 0 42.270732 0 3.822049 1.400906 7.622608 2.863211 11.468193 4.193509 73.058946 25.260314 94.485955 111.801319 53.15871 169.208796-6.207375 8.622378-14.22191 15.870456-22.843264 25.339108 5.742794 0 9.704013 0 13.665231 0 47.38931 0.002047 94.785783-0.496304 142.166907 0.170892 35.44528 0.499373 65.010643 14.915711 85.072561 45.5228 7.704472 11.753695 11.875468 25.952068 17.656125 39.037085 0 22.86066 0 45.721321 0 68.581981-0.706081 1.750877-1.608637 3.446495-2.089591 5.259794-10.055007 37.956474-33.594119 62.727647-69.836555 74.635861-7.665587 2.51938-11.112082 6.603395-10.321066 14.794961 0.364297 3.768837 0.054235 7.605212 0.054235 11.410887-0.002047 110.36869 0.209778 220.73738-0.130983 331.105047-0.105401 34.089399-11.620665 63.87682-39.213094 84.161818-12.988826 9.54847-28.647457 15.262612-43.096541 22.715351-188.364065 0-376.727107 0-565.091172 0-13.32754-6.456039-27.838022-11.17041-39.752376-19.709901-30.258141-21.687952-42.706661-53.268204-42.697451-90.591251 0.027629-111.890346 0.01535-223.780693 0.001023-335.672062-0.002047-14.405081-0.049119-14.407128-13.458523-19.172665-22.056342-7.838525-40.606837-20.838607-52.519144-41.654702C73.154114 440.553785 68.940139 427.40737 63.618946 414.931221zM441.550485 709.09082c0-63.983243 0.032746-127.966487-0.029676-191.94973-0.011256-11.790534-0.782829-12.658298-11.780301-12.668531-74.869175-0.071631-149.739373-0.038886-224.608547-0.037862-1.111311 0-2.225691 0.084934-3.334955 0.038886-5.994528-0.24764-8.983605 2.580778-8.80555 8.853645 0.085958 3.043313-0.039909 6.092765-0.039909 9.139148-0.00307 107.019409-0.00307 214.039841 0.002047 321.05925 0 3.427052-0.080841 6.863315 0.119727 10.280134 1.693572 28.836769 18.590404 50.877761 43.74327 56.223512 8.287757 1.762133 16.884552 2.741437 25.344225 2.778276 54.854329 0.2415 109.709681 0.140193 164.56401 0.113587 14.746866-0.007163 14.812357-0.074701 14.818497-15.308661C441.568904 834.772264 441.554578 771.931031 441.550485 709.09082zM580.042699 707.488323c0 63.98222-0.026606 127.96444 0.022513 191.94666 0.010233 13.038968 0.435928 13.462616 13.240559 13.473873 56.336076 0.048095 112.674199 0.204661 169.008228-0.173962 9.138124-0.061398 18.605753-1.476631 27.325345-4.247744 25.545816-8.117888 38.948057-29.520337 38.971593-61.089333 0.082888-109.302405 0.042979-218.605833 0.022513-327.908238-0.00307-14.993482-0.073678-15.049764-15.06716-15.053857-72.644507-0.021489-145.289014-0.019443-217.933521-0.002047-15.529695 0.004093-15.578814 0.048095-15.584953 15.679098C580.027349 582.571289 580.040652 645.029806 580.042699 707.488323zM296.113091 451.41311c44.121893 0 88.242763 0.040932 132.364657-0.026606 12.186554-0.01842 13.009292-0.784876 13.036921-12.654204 0.090051-38.860053 0.094144-77.721129-0.008186-116.580159-0.029676-11.245112-0.930185-12.112875-12.370749-12.120039-87.872327-0.052189-175.744653-0.207731-263.615956 0.082888-31.136138 0.103354-54.694693 24.894993-55.091736 56.716746-0.104377 8.379854-0.067538 16.762779-0.023536 25.14468 0.187265 35.908838 22.840194 59.303664 57.794287 59.403948C210.835869 451.501114 253.474992 451.407993 296.113091 451.41311zM725.826993 451.41618c0-0.00921 0-0.017396 0-0.026606 43.379996 0 86.759993 0.178055 130.138966-0.059352 31.516808-0.171915 54.768371-24.112164 55.204299-56.280818 0.118704-8.760524-0.466628-17.559934 0.11768-26.281573 1.89414-28.29237-21.200858-58.784848-56.669674-58.773592-87.13043 0.026606-174.260859-0.016373-261.391289 0.027629-12.656251 0.00614-13.137205 0.533143-13.158694 13.626345-0.062422 37.71702-0.055259 75.435063-0.00921 113.152083 0.017396 14.256702 0.349971 14.58723 14.517645 14.600533C638.325104 451.441762 682.07656 451.41618 725.826993 451.41618zM449.329658 256.915347c3.335978 0 6.689353 0.223081 10.005888-0.038886 13.370519-1.055029 19.999496-8.438183 19.964704-22.327518-0.008186-3.399423-0.450255-6.846942-1.102101-10.188037-6.569626-33.664727-21.624507-63.212694-43.107797-89.072665-20.111037-24.207331-44.13315-30.703279-70.648037-21.064758-39.531342 14.370289-52.314483 68.490907-22.179139 98.472755C371.785561 242.069221 409.562956 252.631788 449.329658 256.915347zM579.38062 257.036098c29.40675-2.587941 63.017242-14.625092 92.609211-37.049824 16.467043-12.478196 24.38027-29.972639 23.472598-51.588959-1.038656-24.738427-13.44829-41.921785-34.040281-52.202942-22.649859-11.308557-45.816488-8.809643-64.3721 8.590656-28.089755 26.339902-45.588291 59.82248-52.905954 98.276281C539.102265 249.562892 545.875528 257.157871 579.38062 257.036098z" p-id="5088" fill="#616161"></path></svg>