<?xml version="1.0" standalone="no"?><!DOCTYPE svg PUBLIC "-//W3C//DTD SVG 1.1//EN" "http://www.w3.org/Graphics/SVG/1.1/DTD/svg11.dtd"><svg t="1515155624629" class="icon" style="" viewBox="0 0 1024 1024" version="1.1" xmlns="http://www.w3.org/2000/svg" p-id="2608" xmlns:xlink="http://www.w3.org/1999/xlink" width="200" height="200"><defs><style type="text/css"></style></defs><path d="M856.0128 719.65696l-204.48256-207.01184a16.59904 16.59904 0 0 0-23.7312 0 17.05984 17.05984 0 0 0 0 24.0384l204.48256 207.01696c24.60672 24.96512 24.60672 65.56672 0 90.48064a62.6432 62.6432 0 0 1-89.344 0l-201.3696-203.90912c-0.0512-0.1024-0.07168-0.20992-0.12288-0.31744-4.33152-8.25344-14.54592-11.40224-22.69696-7.0144-90.56256 48.84992-200.12544 32.18432-272.71168-41.27232-61.31712-62.11584-82.76992-154.74688-56.8832-237.37856L311.0656 467.7632a49.98656 49.98656 0 0 0 35.59424 14.85824 49.96096 49.96096 0 0 0 35.61984-14.85824l78.8992-79.90272c9.46688-9.59488 14.70464-22.38976 14.70464-36.06016s-5.23264-26.46016-14.70464-36.05504L339.2512 192.3072c81.57696-26.24 173.12256-4.56704 234.49088 57.55904 54.77888 55.45472 78.40768 134.58944 63.39584 211.65568-1.80736 9.23648 4.07552 18.16064 13.2096 20.0192 1.08032 0.2048 2.21696 0.3072 3.2512 0.3072 7.83872 0 14.85312-5.62176 16.50688-13.6704 17.2288-88.26368-9.95328-178.84672-72.63232-242.35008-77.07136-77.99808-195.77344-100.33664-295.25504-55.66464-8.45824 3.81952-12.30336 13.8752-8.53504 22.44096 0.98816 2.26816 2.42688 4.18304 4.13696 5.73952L437.4528 339.77856c3.11808 3.2 4.87424 7.42912 4.87424 12.01664 0 4.59264-1.73056 8.82176-4.87424 12.02176L358.5536 443.7248a16.67072 16.67072 0 0 1-23.7568 0L194.9952 302.1824c-0.09728-0.10752-0.2048-0.20992-0.3072-0.31232l-0.1536-0.15872c-0.1024-0.10752-0.22528-0.17408-0.3328-0.27648a16.24064 16.24064 0 0 0-2.18624-1.81248c-0.24064-0.16384-0.49664-0.2816-0.7424-0.43008-0.5888-0.3584-1.152-0.74752-1.792-1.03936-0.128-0.05632-0.26112-0.0768-0.38912-0.128-0.26112-0.10752-0.5376-0.16896-0.80384-0.26624a17.408 17.408 0 0 0-2.38592-0.72192l-0.19456-0.02048a16.60928 16.60928 0 0 0-14.848 4.65408l-0.0512 0.04096c-0.08704 0.09216-0.14848 0.19968-0.2304 0.28672a16.98816 16.98816 0 0 0-1.78176 2.2016c-0.256 0.38912-0.44544 0.79872-0.67072 1.2032-0.26624 0.47104-0.57344 0.90624-0.7936 1.41312-44.12928 100.80256-22.02624 220.89216 54.9632 298.89024 51.328 51.94752 118.74816 79.0784 187.22816 79.0784 38.20032 0 76.71808-8.51968 112.94208-25.80992l196.75648 199.23968a95.8976 95.8976 0 0 0 68.4032 28.63104c24.76032 0 49.52064-9.54368 68.39808-28.63104 37.65248-38.22592 37.65248-100.33664-0.01024-138.55744z" p-id="2609" fill="#616161"></path></svg>